<svg
	xmlns="http://www.w3.org/2000/svg"
	version="1.1"
	width="160"
	height="160"
	viewBox="0 0 42.331008 42.335001"
	id="icon"
	stroke="none"
>
	<style>
		g {
			fill: #51a2ff;
			fill: var(--p, oklch(0.707 0.165 254.624));
		}

		@media (prefers-color-scheme: light) {
			g {
				fill: #432dd7;
				fill: var(--bg-1, oklch(45.7% 0.24 277.023));
			}
		}
	</style>
	<g>
		<path
			id="l_1"
			d="M 12.398997,35.852465 V 6.4825355 h 6.35025 v 18.7075395 10.66239 z"
		/>
		<path
			id="l_2"
			d="M 24.464437,35.852465 V 6.4825355 h 6.35026 V 35.852465 Z"
		/>
		<path
			id="strikethrough"
			d="m 37.966386,14.632825 c -1.553104,-0.049 -3.082863,-0.0728 -4.691039,0.14473 -4.322548,0.58456 -8.926527,1.85618 -12.859742,3.44707 -7.036795,2.8462 -18.5468751,10.11132 -18.5468751,10.11132 l 3.3593751,5.38867 c 0,0 11.888608,-7.31596 17.568359,-9.61328 3.546909,-1.43463 7.65695,-2.54402 11.330446,-3.04081 1.529595,-0.20687 5.913493,0.0506 5.913493,0.0506 l 0.421875,-6.33594 c 0,0 -0.942788,-0.10337 -2.495892,-0.15234 z"
		/>
	</g>
</svg>
