<svg
	xmlns="http://www.w3.org/2000/svg"
	version="1.1"
	width="180"
	height="180"
	viewBox="0 0 47.622384 47.626876"
	id="icon"
	stroke="none"
>
	<style>
		rect {
			fill: #171717;
			fill: var(--bg-2, oklch(20.5% 0 0));
		}

		g {
			fill: #51a2ff;
			fill: var(--p, oklch(0.707 0.165 254.624));
		}

		@media (prefers-color-scheme: light) {
			rect {
				fill: #e5e5e5;
				fill: var(--bg-2, oklch(92.2% 0 0));
			}

			g {
				fill: #432dd7;
				fill: var(--bg-1, oklch(45.7% 0.24 277.023));
			}
		}
	</style>
	<rect width="47.626625" height="47.626877" x="-0.0019965" y="0" />
	<g>
		<path
			id="l_1"
			d="M 15.044685,38.498403 V 9.1284733 h 6.35025 v 18.7075397 10.66239 z"
		/>
		<path
			id="l_2"
			d="M 27.110125,38.498403 V 9.1284733 h 6.35026 V 38.498403 Z"
		/>
		<path
			id="strikethrough"
			d="m 40.612074,17.278763 c -1.553104,-0.049 -3.082863,-0.0728 -4.691039,0.14473 -4.322548,0.58456 -8.926527,1.85618 -12.859742,3.44707 -7.036795,2.8462 -18.546875,10.11132 -18.546875,10.11132 l 3.3593751,5.38867 c 0,0 11.8886079,-7.31596 17.5683589,-9.61328 3.546909,-1.43463 7.65695,-2.54402 11.330446,-3.04081 1.529595,-0.20687 5.913493,0.0506 5.913493,0.0506 l 0.421875,-6.33594 c 0,0 -0.942788,-0.10337 -2.495892,-0.15234 z"
		/>
	</g>
</svg>
