<svg
	xmlns="http://www.w3.org/2000/svg"
	version="1.1"
	width="358.49942"
	height="145.50011"
	viewBox="0 0 94.84776 38.498419"
	id="logo"
	stroke="none"
>
	<style>
		g {
			fill: #51a2ff;
			fill: var(--p, oklch(0.707 0.165 254.624));
		}

		@media (prefers-color-scheme: light) {
			g {
				fill: #432dd7;
				fill: var(--bg-1, oklch(45.7% 0.24 277.023));
			}
		}
	</style>
	<g>
		<path
			id="T"
			d="M 8.2505945,29.36993 V 7.54093 H -0.00473833 V 1.58756 H 23.451526 v 5.95337 h -8.453782 v 21.829 z"
		/>
		<path
			id="a"
			d="m 31.349596,29.72713 q -2.65917,0 -4.7627,-1.38912 -2.06383,-1.4288 -3.29419,-3.88953 -1.23036,-2.50041 -1.23036,-5.63585 0,-3.21482 1.23036,-5.67554 1.23036,-2.46073 3.37357,-3.8498401 2.14321,-1.4288099 4.88176,-1.4288099 1.50819,0 2.73855,0.43658 1.27005,0.43658 2.22259,1.2303599 0.95254,0.7540901 1.62725,1.7860101 0.67472,0.99223 0.99223,2.14321 l -1.30974,-0.15876 V 8.29502 h 6.31057 v 21.07491 h -6.42964 v -5.08021 l 1.42881,-0.0397 q -0.31751,1.1113 -1.03192,2.10353 -0.7144,0.99222 -1.74632,1.74632 -1.03191,0.75409 -2.30197,1.19067 -1.27005,0.43658 -2.69885,0.43658 z m 1.74632,-5.35803 q 1.46849,0 2.5401,-0.67471 1.0716,-0.67472 1.66694,-1.90508 0.59534,-1.27005 0.59534,-2.97668 0,-1.70663 -0.59534,-2.93699 -0.59534,-1.27005 -1.66694,-1.94477 -1.07161,-0.7144 -2.5401,-0.7144 -1.42881,0 -2.50042,0.7144 -1.03191,0.67472 -1.62725,1.94477 -0.59534,1.23036 -0.59534,2.93699 0,1.70663 0.59534,2.97668 0.59534,1.23036 1.62725,1.90508 1.07161,0.67471 2.50042,0.67471 z"
		/>
		<path
			id="l_1"
			d="M 49.765276,29.36993 V 0 h 6.35025 v 18.70754 10.66239 z"
		/>
		<path id="l_2" d="M 61.830716,29.36993 V 0 h 6.35026 v 29.36993 z" />
		<path
			id="y"
			d="m 75.920256,38.49842 4.80238,-11.31139 0.0794,3.25451 -10.16041,-22.14652 h 7.18373 l 4.44518,10.59699 q 0.3572,0.79378 0.67471,1.70663 0.31751,0.91285 0.47627,1.74632 l -0.87316,0.51596 q 0.23813,-0.59534 0.51596,-1.4685 0.31751,-0.91285 0.67471,-1.94477 l 3.88953,-11.15263 h 7.223411 l -8.969731,21.07491 -3.65139,9.12849 z"
		/>
		<path
			id="strikethrough"
			d="m 75.332665,8.15029 c -1.553104,-0.049 -3.082863,-0.0728 -4.691039,0.14473 -4.322548,0.58456 -8.926527,1.85618 -12.859742,3.44707 -7.036795,2.8462 -18.546875,10.11132 -18.546875,10.11132 l 3.359375,5.38867 c 0,0 11.888608,-7.31596 17.568359,-9.61328 3.546909,-1.43463 7.65695,-2.54402 11.330446,-3.04081 1.529595,-0.20687 5.913493,0.0506 5.913493,0.0506 l 0.421875,-6.33594 c 0,0 -0.942788,-0.10337 -2.495892,-0.15234 z"
		/>
	</g>
</svg>
